<?xml version="1.0" standalone="no"?><!DOCTYPE svg PUBLIC "-//W3C//DTD SVG 1.1//EN" "http://www.w3.org/Graphics/SVG/1.1/DTD/svg11.dtd"><svg t="1731479494228" class="icon" viewBox="0 0 1024 1024" version="1.1" xmlns="http://www.w3.org/2000/svg" p-id="6311" xmlns:xlink="http://www.w3.org/1999/xlink" width="200" height="200"><path d="M853.333333 938.666667H170.666667a84.949333 84.949333 0 0 1-85.333334-84.565334V479.082667a84.437333 84.437333 0 0 1 41.429334-72.533334L213.333333 355.072V170.666667a85.333333 85.333333 0 0 1 85.333334-85.333334h426.666666a85.333333 85.333333 0 0 1 85.333334 85.333334v184.405333l86.570666 51.477333a84.437333 84.437333 0 0 1 41.429334 72.533334v374.954666A84.949333 84.949333 0 0 1 853.333333 938.666667zM167.424 456.405333l46.464 21.802667L213.333333 477.866667v-48.832zM810.666667 429.056V477.866667l-64 30.037333V170.666667a21.333333 21.333333 0 0 0-21.333334-21.333334H298.666667a21.333333 21.333333 0 0 0-21.333334 21.333334v341.333333h8.661334l203.178666 95.381333a53.653333 53.653333 0 0 0 45.674667 0l203.157333-95.36H746.666667v-4.074666l109.909333-51.584z m64 128.981333v-40.021333l-312.448 146.666667a117.888 117.888 0 0 1-100.437334 0L149.333333 518.016v336.021333a21.333333 21.333333 0 0 0 21.333334 21.141334h682.666666a21.333333 21.333333 0 0 0 21.333334-21.141334V558.037333z" fill="#1296db" p-id="6312"></path><path d="M608 320h-192a32 32 0 0 1 0-64h192a32 32 0 0 1 0 64z m-192 85.333333h192a32 32 0 0 1 0 64h-192a32 32 0 0 1 0-64z" fill="#1296db" p-id="6313"></path></svg>