<?xml version="1.0" encoding="UTF-8"?>
<svg id="_图层_1" data-name="图层 1" xmlns="http://www.w3.org/2000/svg" xmlns:xlink="http://www.w3.org/1999/xlink" viewBox="0 0 595.28 344.16">
  <defs>
    <style>
      .cls-1 {
        fill: #231815;
      }

      .cls-1, .cls-2, .cls-3 {
        stroke-width: 0px;
      }

      .cls-2 {
        fill: url(#_未命名的渐变_192);
      }

      .cls-3 {
        fill: url(#_未命名的渐变_190);
        filter: url(#drop-shadow-2);
      }
    </style>
    <linearGradient id="_未命名的渐变_192" data-name="未命名的渐变 192" x1="113.67" y1="172.84" x2="206.71" y2="172.84" gradientUnits="userSpaceOnUse">
      <stop offset="0" stop-color="#4d89c8"/>
      <stop offset=".22" stop-color="#4b86c4"/>
      <stop offset=".4" stop-color="#467dba"/>
      <stop offset=".57" stop-color="#3f6fa8"/>
      <stop offset=".74" stop-color="#345b90"/>
      <stop offset=".9" stop-color="#254170"/>
      <stop offset="1" stop-color="#1b2e58"/>
    </linearGradient>
    <linearGradient id="_未命名的渐变_190" data-name="未命名的渐变 190" x1="176.54" y1="202.13" x2="103.06" y2="131.49" gradientUnits="userSpaceOnUse">
      <stop offset="0" stop-color="#4d89c8"/>
      <stop offset=".22" stop-color="#4b86c4"/>
      <stop offset=".4" stop-color="#467dba"/>
      <stop offset=".57" stop-color="#3f6fa8"/>
      <stop offset=".74" stop-color="#345b90"/>
      <stop offset=".9" stop-color="#254170"/>
      <stop offset="1" stop-color="#1b2e58"/>
    </linearGradient>
    <filter id="drop-shadow-2" filterUnits="userSpaceOnUse">
      <feOffset dx="2.79" dy="2.79"/>
      <feGaussianBlur result="blur" stdDeviation="1.99"/>
      <feFlood flood-color="#231815" flood-opacity=".2"/>
      <feComposite in2="blur" operator="in"/>
      <feComposite in="SourceGraphic"/>
    </filter>
  </defs>
  <g>
    <path class="cls-2" d="m200.66,162.28l-65.49-38.41c-9.52-5.58-21.5,1.28-21.5,12.32v73.3c0,11.03,11.98,17.9,21.5,12.32l65.49-38.41c8.06-4.73,8.06-16.39,0-21.12Zm-24.29,18.08l-44.66,26.72c-6.4,3.83-14.54-.78-14.54-8.24v-50.25c0-8.23,8.97-13.31,16.03-9.09l43.17,25.82c5.69,3.4,5.69,11.65,0,15.05Z"/>
    <path class="cls-3" d="m172.7,171.79c-1.05-1.62-2.47-2.93-4.26-3.93,2.95-2.45,4.77-5.88,5.4-10.23l.35-3.05c.12-1.29.18-2.15.18-2.64,0-4.87-1.72-8.63-5.12-11.19-3.28-2.46-7.98-3.74-13.99-3.8h-53.94v11.31h53.05c3.17.06,5.35.76,6.49,2.07.79.92,1.11,2.17.97,3.83l-.42,3.3c-.65,4.03-3.69,6.04-9.28,6.15h-14.46l1.8-14.12h-12.55l-6.71,53.02h29.76c7.02,0,12.69-1.5,16.82-4.46,4.22-3.02,6.73-7.35,7.47-12.9l.43-3.53c.07-.51.1-1.2.1-2.09,0-2.98-.71-5.58-2.11-7.73Zm-10.6,9.6l-.43,3.57c-.35,1.84-1.34,3.24-3.01,4.29-1.78,1.12-4.3,1.71-7.48,1.76h-16.97l2.12-16.35h17.18c3.19.05,5.54.68,6.97,1.88,1.33,1.11,1.85,2.69,1.61,4.84Z"/>
  </g>
  <g>
    <path class="cls-1" d="m237.88,129.66h8.85c2.8,0,4.9.22,6.3.67,1.4.45,2.48,1.35,3.25,2.72s1.02,3.57.75,6.6c-.18,2.05-.62,3.48-1.31,4.29-.7.81-1.98,1.43-3.86,1.86,2.01.48,3.33,1.27,3.97,2.38.63,1.11.85,2.8.65,5.09l-.28,3.26c-.21,2.37-.62,4.13-1.25,5.28s-1.54,1.92-2.72,2.34c-1.19.42-3.57.63-7.14.63h-10.27l3.07-35.13Zm8.35,6.01l-.68,7.81c.38-.01.68-.02.89-.02.87,0,1.45-.22,1.72-.66.28-.44.51-1.7.69-3.79.1-1.1.07-1.87-.09-2.31-.16-.44-.39-.72-.7-.84-.31-.12-.92-.18-1.83-.2Zm-1.16,13.28l-.86,9.83c1.25-.04,2.07-.25,2.45-.61.38-.36.63-1.25.75-2.67l.29-3.28c.13-1.5.06-2.42-.22-2.73-.28-.32-1.08-.5-2.4-.54Z"/>
    <path class="cls-1" d="m270.6,129.66l-3.07,35.13h-8.87l3.07-35.13h8.87Z"/>
    <path class="cls-1" d="m292.64,150.23c-.31,3.53-.61,6.03-.9,7.5-.29,1.47-.91,2.81-1.87,4.02s-2.19,2.15-3.69,2.8-3.22.98-5.14.98-3.44-.31-4.84-.92-2.49-1.54-3.27-2.77c-.78-1.23-1.19-2.57-1.23-4.01-.04-1.45.1-3.98.41-7.59l.53-6.01c.31-3.53.61-6.03.9-7.5.29-1.47.91-2.81,1.87-4.02.96-1.22,2.19-2.15,3.69-2.8,1.5-.65,3.22-.98,5.14-.98,1.83,0,3.44.31,4.84.92,1.4.62,2.49,1.54,3.27,2.77.78,1.23,1.19,2.57,1.23,4.01.04,1.45-.1,3.98-.41,7.59l-.53,6.01Zm-7.86-11.54c.14-1.63.15-2.68.01-3.14-.14-.46-.48-.68-1.03-.68-.46,0-.84.18-1.11.55-.28.37-.5,1.46-.65,3.27l-1.44,16.4c-.18,2.04-.21,3.3-.09,3.78.12.48.47.72,1.07.72s1.01-.27,1.23-.82c.22-.55.42-1.86.6-3.93l1.41-16.14Z"/>
    <path class="cls-1" d="m306.62,129.66l-3.07,35.13h-8.87l3.07-35.13h8.87Z"/>
    <path class="cls-1" d="m328.06,140.29h-8.24l.23-2.6c.11-1.22.07-1.99-.11-2.32-.18-.33-.52-.5-1.01-.5-.53,0-.96.22-1.27.67-.31.45-.51,1.13-.59,2.04-.1,1.17-.03,2.06.23,2.65.24.59,1.02,1.31,2.32,2.15,3.74,2.41,6.05,4.39,6.94,5.94.89,1.55,1.19,4.04.88,7.49-.22,2.5-.66,4.35-1.34,5.53-.67,1.19-1.86,2.18-3.56,2.98s-3.63,1.2-5.8,1.2c-2.37,0-4.36-.46-5.96-1.39-1.6-.92-2.59-2.1-2.99-3.54s-.48-3.46-.25-6.1l.2-2.3h8.24l-.37,4.27c-.12,1.32-.07,2.16.13,2.54.2.38.59.56,1.18.56s1.05-.24,1.38-.72.54-1.19.62-2.13c.18-2.07.03-3.42-.47-4.06-.51-.64-1.8-1.7-3.87-3.19-2.07-1.5-3.44-2.6-4.1-3.28-.66-.68-1.17-1.62-1.53-2.82-.37-1.2-.47-2.73-.3-4.6.24-2.69.74-4.66,1.52-5.9.78-1.24,1.94-2.22,3.49-2.92,1.55-.7,3.38-1.05,5.49-1.05,2.3,0,4.24.38,5.79,1.15,1.56.77,2.55,1.73,2.97,2.9.43,1.16.52,3.14.27,5.93l-.12,1.39Z"/>
    <path class="cls-1" d="m350.99,150.23c-.31,3.53-.61,6.03-.9,7.5-.29,1.47-.91,2.81-1.87,4.02s-2.19,2.15-3.69,2.8-3.22.98-5.14.98-3.44-.31-4.84-.92-2.49-1.54-3.27-2.77c-.78-1.23-1.19-2.57-1.23-4.01-.04-1.45.1-3.98.41-7.59l.53-6.01c.31-3.53.61-6.03.9-7.5.29-1.47.91-2.81,1.87-4.02s2.19-2.15,3.69-2.8,3.22-.98,5.14-.98,3.44.31,4.84.92c1.4.62,2.49,1.54,3.27,2.77.78,1.23,1.19,2.57,1.23,4.01.04,1.45-.1,3.98-.41,7.59l-.53,6.01Zm-7.86-11.54c.14-1.63.15-2.68.01-3.14s-.48-.68-1.03-.68c-.46,0-.83.18-1.11.55s-.5,1.46-.65,3.27l-1.44,16.4c-.18,2.04-.21,3.3-.09,3.78s.47.72,1.07.72,1.01-.27,1.23-.82c.22-.55.42-1.86.6-3.93l1.41-16.14Z"/>
    <path class="cls-1" d="m373.97,140.29h-8.24l.23-2.6c.11-1.22.07-1.99-.11-2.32-.18-.33-.52-.5-1.01-.5-.53,0-.96.22-1.27.67-.31.45-.51,1.13-.59,2.04-.1,1.17-.03,2.06.23,2.65.24.59,1.02,1.31,2.32,2.15,3.74,2.41,6.05,4.39,6.94,5.94.89,1.55,1.19,4.04.88,7.49-.22,2.5-.66,4.35-1.34,5.53-.67,1.19-1.86,2.18-3.56,2.98s-3.63,1.2-5.8,1.2c-2.37,0-4.36-.46-5.96-1.39-1.6-.92-2.59-2.1-2.99-3.54s-.48-3.46-.25-6.1l.2-2.3h8.24l-.37,4.27c-.12,1.32-.07,2.16.13,2.54.2.38.59.56,1.18.56s1.05-.24,1.38-.72.54-1.19.62-2.13c.18-2.07.03-3.42-.47-4.06-.51-.64-1.8-1.7-3.87-3.19-2.07-1.5-3.44-2.6-4.1-3.28-.66-.68-1.17-1.62-1.53-2.82-.37-1.2-.47-2.73-.3-4.6.24-2.69.74-4.66,1.52-5.9.78-1.24,1.94-2.22,3.49-2.92,1.55-.7,3.38-1.05,5.49-1.05,2.3,0,4.24.38,5.79,1.15,1.56.77,2.55,1.73,2.97,2.9.43,1.16.52,3.14.27,5.93l-.12,1.39Z"/>
    <path class="cls-1" d="m396.29,129.66l-.62,7.03h-5.27l-2.46,28.1h-8.87l2.46-28.1h-5.25l.62-7.03h19.39Z"/>
    <path class="cls-1" d="m398.32,129.66h14.8l-.62,7.03h-5.92l-.58,6.66h5.54l-.58,6.68h-5.54l-.68,7.72h6.51l-.62,7.03h-15.39l3.07-35.13Z"/>
    <path class="cls-1" d="m416.26,129.66h6.28c4.19,0,7.01.17,8.46.5,1.45.33,2.59,1.18,3.4,2.55s1.09,3.55.83,6.54c-.24,2.73-.73,4.57-1.47,5.51-.74.94-2.09,1.51-4.05,1.69,1.72.45,2.85,1.05,3.38,1.8.54.75.85,1.44.95,2.07s.01,2.36-.23,5.2l-.81,9.26h-8.24l1.02-11.67c.16-1.88.12-3.04-.13-3.49-.25-.45-.98-.67-2.21-.67l-1.39,15.84h-8.87l3.07-35.13Zm8.35,6.01l-.68,7.81c1,0,1.71-.14,2.13-.42s.71-1.2.84-2.74l.17-1.93c.1-1.11-.03-1.84-.39-2.19s-1.05-.52-2.07-.52Z"/>
    <path class="cls-1" d="m448.38,129.66l-3.07,35.13h-8.87l3.07-35.13h8.87Z"/>
    <path class="cls-1" d="m469.82,140.29h-8.24l.23-2.6c.11-1.22.07-1.99-.11-2.32-.18-.33-.52-.5-1.01-.5-.53,0-.96.22-1.27.67-.31.45-.51,1.13-.59,2.04-.1,1.17-.03,2.06.23,2.65.24.59,1.02,1.31,2.32,2.15,3.74,2.41,6.05,4.39,6.94,5.94.89,1.55,1.19,4.04.88,7.49-.22,2.5-.66,4.35-1.34,5.53-.67,1.19-1.86,2.18-3.56,2.98s-3.63,1.2-5.8,1.2c-2.37,0-4.36-.46-5.96-1.39-1.6-.92-2.59-2.1-2.99-3.54s-.48-3.46-.25-6.1l.2-2.3h8.24l-.37,4.27c-.12,1.32-.07,2.16.13,2.54.2.38.59.56,1.18.56s1.05-.24,1.38-.72.54-1.19.62-2.13c.18-2.07.03-3.42-.47-4.06-.51-.64-1.8-1.7-3.87-3.19-2.07-1.5-3.44-2.6-4.1-3.28-.66-.68-1.17-1.62-1.53-2.82-.37-1.2-.47-2.73-.3-4.6.24-2.69.74-4.66,1.52-5.9.78-1.24,1.94-2.22,3.49-2.92,1.55-.7,3.38-1.05,5.49-1.05,2.3,0,4.24.38,5.79,1.15,1.56.77,2.55,1.73,2.97,2.9.43,1.16.52,3.14.27,5.93l-.12,1.39Z"/>
    <path class="cls-1" d="m501.65,129.66l-3.07,35.13h-7.76l2.06-23.71-5.16,23.71h-5.5l-1.23-23.17-2.04,23.17h-7.76l3.07-35.13h11.48c.16,2.11.29,4.6.4,7.47l.48,8.93,3.47-16.4h11.55Z"/>
  </g>
  <g>
    <path class="cls-1" d="m237.88,184.8h6.47c4.31,0,7.21.17,8.71.5,1.5.33,2.67,1.18,3.51,2.55.84,1.37,1.13,3.55.87,6.54-.24,2.73-.74,4.57-1.5,5.51-.76.94-2.15,1.5-4.16,1.69,1.77.45,2.93,1.05,3.49,1.8.56.75.88,1.44.98,2.07s.02,2.36-.23,5.2l-.81,9.26h-8.48l1.02-11.67c.16-1.88.12-3.04-.14-3.49-.26-.45-1.02-.67-2.27-.67l-1.39,15.84h-9.13l3.07-35.13Zm8.61,6.01l-.68,7.81c1.03,0,1.76-.14,2.2-.42s.72-1.2.86-2.74l.17-1.93c.1-1.11-.04-1.84-.4-2.19-.37-.35-1.08-.52-2.13-.52Z"/>
    <path class="cls-1" d="m264.03,184.8h15.23l-.62,7.03h-6.1l-.58,6.66h5.71l-.58,6.68h-5.71l-.68,7.72h6.7l-.62,7.03h-15.84l3.07-35.13Z"/>
    <path class="cls-1" d="m284.72,184.8h9.2c2.49,0,4.38.2,5.69.59,1.3.39,2.26.95,2.87,1.69s.99,1.63,1.13,2.68.12,2.67-.07,4.87l-.27,3.06c-.2,2.24-.57,3.88-1.12,4.9-.55,1.03-1.47,1.82-2.76,2.36s-2.93.82-4.92.82h-2.45l-1.24,14.15h-9.13l3.07-35.13Zm8.61,6.01l-.78,8.94c.26.01.48.02.67.02.84,0,1.44-.21,1.8-.62s.6-1.27.71-2.57l.25-2.89c.11-1.2-.01-1.98-.36-2.34-.34-.36-1.11-.54-2.3-.54Z"/>
    <path class="cls-1" d="m318.38,184.8l-2.46,28.1h5.55l-.62,7.03h-14.69l3.07-35.13h9.13Z"/>
    <path class="cls-1" d="m345.26,184.8l2.15,35.13h-9.33l.06-6.31h-3.27l-1.1,6.31h-9.44l7.73-35.13h13.2Zm-6.82,22.59c-.11-3.98-.15-8.9-.1-14.75-1.52,6.73-2.53,11.64-3.04,14.75h3.14Z"/>
    <path class="cls-1" d="m374.25,200.09h-9.13l.53-6.11c.16-1.77.15-2.88,0-3.32-.16-.44-.57-.66-1.23-.66-.75,0-1.25.27-1.5.8s-.45,1.69-.61,3.47l-1.43,16.32c-.15,1.71-.15,2.82.01,3.34s.59.78,1.3.78,1.15-.26,1.4-.78.47-1.75.64-3.68l.39-4.42h9.13l-.12,1.37c-.32,3.64-.8,6.21-1.45,7.73-.65,1.52-1.9,2.85-3.76,4-1.86,1.14-4.07,1.72-6.65,1.72s-4.84-.48-6.49-1.45-2.68-2.31-3.1-4.02-.47-4.29-.17-7.73l.9-10.26c.22-2.53.47-4.43.76-5.7s.91-2.48,1.87-3.66,2.24-2.09,3.82-2.77,3.37-1.01,5.35-1.01c2.69,0,4.87.52,6.52,1.56s2.7,2.34,3.11,3.89.48,3.97.19,7.25l-.29,3.34Z"/>
    <path class="cls-1" d="m381.08,184.8h15.23l-.62,7.03h-6.1l-.58,6.66h5.71l-.58,6.68h-5.71l-.68,7.72h6.7l-.62,7.03h-15.84l3.07-35.13Z"/>
    <path class="cls-1" d="m429.95,184.8l-3.07,35.13h-7.98l2.06-23.71-5.25,23.71h-5.66l-1.32-23.17-2.04,23.17h-7.98l3.07-35.13h11.82c.17,2.11.31,4.6.43,7.47l.52,8.93,3.53-16.4h11.88Z"/>
    <path class="cls-1" d="m435.84,184.8h15.23l-.62,7.03h-6.1l-.58,6.66h5.71l-.58,6.68h-5.71l-.68,7.72h6.7l-.62,7.03h-15.84l3.07-35.13Z"/>
    <path class="cls-1" d="m476.92,184.8l-3.07,35.13h-8.01l-3.35-15.97-1.4,15.97h-7.64l3.07-35.13h7.64l3.74,15.82,1.38-15.82h7.64Z"/>
    <path class="cls-1" d="m501.21,184.8l-.62,7.03h-5.42l-2.46,28.1h-9.13l2.46-28.1h-5.4l.62-7.03h19.96Z"/>
  </g>
  <rect class="cls-1" x="234.81" y="172.84" width="263.33" height="5.21"/>
</svg>